<svg version="1.2" xmlns="http://www.w3.org/2000/svg" viewBox="0 0 1500 1500" width="1500" height="1500">
	<title>logo vetorizada verdemarinho claro</title>
	<style>
		.s0 { fill: #70ffbd } 
	</style>
	<g>
		<path fill-rule="evenodd" class="s0" d="m1158.1 131.3c21.2 7.1 91.4 42.1 107.8 54.1 16.4 12 47.5 48.4 73.2 85.3 45.9 66.7 66.3 146 56.5 220.9-5.7 42.6-9.3 55.7-27 97.6-15.9 36.6-30.3 60.4-50 81.2-6.5 6.8-16.9 18.6-23.5 26.5-38.5 46.2-106.7 82-179.9 94.8-12.3 2.2-23.5 5.2-25.1 6.9-2.2 2.2-2 3 0.8 3 2.2 0 54.6 0.5 116.6 0.8 132.1 0.6 123.4-1.6 125.9 31.4 1.6 26.6-1.4 49.3-7.4 52.3-2.7 1.6-23.5 3-46.4 3.2-22.7 0.3-42.1 1.4-42.6 2.5-0.9 1.1-1.4 45.7-1.4 98.7-0.3 96.8-0.3 96.8 46.1 99.5 25.4 1.4 47.3 3.8 48.7 4.9 2.7 2.8 4.6 56.9 2.4 65.9-3 11.8-11.7 13.1-95.8 14.5-46.7 0.5-80.3 2.2-82 3.8-1.6 1.7-3.2 33.4-4 77.9-1.4 68.7-2 75.8-6.3 79-6.3 4.7-47.8 7.4-67.5 5-12-1.9-15.5-3.6-18.3-9.1-2.7-5.1-3.5-35.8-3.5-127.9 0-120.8 0-120.8-38.3-120.8-29.2 0-40.4-1.1-46.4-4.1-4.6-2.5-8.4-4.7-8.7-4.9-0.3-0.3-1.4-41.9-2.2-92.2-1.4-91.6-1.4-91.6-42.3-91.6-22.4 0.3-43.2 1.1-45.6 2-4.1 1.6-4.4 11.7-4.4 112 0 60.7 0.8 131 1.6 156.7 2 46.5 2 46.5 10.2 50.3 4.6 2.2 19.3 4.6 32.7 5.5 24.6 1.6 24.6 1.6 25.4 60.1 0.6 45.1-0.3 59-2.7 61-4.1 2.4-109 3-115.5 0.5-2.5-1.1-5.5-4.6-6.8-8.2-1.4-3.5-2.8-70-2.8-147.9 0-77.9-1.1-152.3-1.9-165.7-1.6-23.7-1.6-23.7-48.3-23.2-46.7 0.8-46.7 0.8-47.5 85.8-0.6 84.8-0.6 84.8-10.1 89.4-16.4 8-62.6 6.1-72.4-2.7-0.8-0.8-1.9-62.3-2.7-137-1.4-135.8-1.4-135.8-12.9-159.6-13.6-27.3-25.1-38.6-55.1-53.6-19.7-9.6-20.8-9.8-60.9-11.5-46.2-1.6-47-1.9-50.3-24-2.4-15.9 0.3-52.8 4.1-60.5 3-5.7 4.7-5.7 76.8-5.7 73.7 0 73.7 0 84.1-9.3 10.1-9.3 10.1-9.6 11.7-36.3 1.1-14.8 1.9-78.2 2.2-140.8 0.3-135.1-3.8-122.5 40.1-122.5 25.2 0 28.7 0.5 38 7.1 5.7 3.8 11.2 6 12.3 4.6 0.8-1 3.3-12.8 4.9-25.7 1.9-13.1 5.7-30.3 8.5-38.2 7.1-20.8 25.9-58.8 36.5-74.1 4.7-6.8 11.8-17.8 15.6-24.1 3.8-6.3 21-25.9 38.2-43.4 30.6-31.5 32.3-32.6 69.7-51.4 54-27.4 87.4-38 131-43 35.3-3.8 102.7 3.3 136.9 14.3zm-127 136.1c-5.2 24.3-5.2 24.3-22.7 23.5-9.5-0.3-25.9-3-36.3-6.3-29.5-8.7-29.5-8.7-32 7.1-4.1 26-5.4 23.8 15.3 30.7 10.7 3.2 20.8 7.6 22.7 9.5 4.6 4.9 1.6 23.3-16.1 96.5-24.9 103.6-20.5 93-37.7 93-8.2 0-20.2-1.1-26.5-2.5-11.2-1.9-11.7-1.9-11.7 4.4 0 3.5-2.5 10.9-5.5 16.7-3 5.4-5.4 10.6-5.4 10.9 0 1.9 20.4 9.6 40.9 15.6 29 8.5 32.8 10.1 32.8 15.6 0 2.7-3 16.6-6.8 30.9-5.2 20.2-6.1 26.5-3.3 28.9 2.7 2.5 28.1 9.3 35.8 9.6 1.6 0 5.4-12.6 9-27.9 6.8-30.3 9.2-35.2 18.5-35.2 17.2 0 18.6 6.2 8.5 41.2-5.2 17.5-6 23.8-3.6 26 3 2.7 39.9 10.7 41.6 8.8 0.2-0.6 2.4-13.7 4.3-29.6 4.1-28.7 4.1-28.7 43.4-28.7 47.3-0.3 59.3-3.3 72.1-18.3 16.1-18.9 24.9-39.6 24.9-59.6 0-24.9-2.5-31.4-18.6-48.4-14.2-15-14.2-15 2.7-30.6 14-12.6 18.1-18.6 22.7-31.7 9.8-28.2 3.8-49.8-20.5-73.8-10.9-10.7-18-15.1-30.8-18.9-18.9-5.7-20.5-9-13.1-26.5 2.1-5.2 4.6-15.6 5.7-23.2 2.2-17.3-0.6-20-23.8-21.9-17.2-1.7-17.2-1.7-20.7 15.6-5.8 27-10.1 35.2-18.9 35.2-15.2 0-16.1-2.4-9.5-31.4 3.5-14.5 5.4-27.3 4.6-28.4-0.5-1.4-6.8-3.9-13.4-5.5-22.9-5.7-21.3-7.1-28.6 28.7zm-321.1 364.1c-0.9 0.9-1.4 39.4-1.4 85.6v84.2l157.8 0.8c86.6 0.6 159.2 0.3 161.1-0.2 6.3-1.7 1.9-7.1-6.5-8-70.8-6.5-141.5-34.4-183-72.4-23.7-21.6-66.6-73-68.5-81.5-0.8-4.1-2.8-8.2-4.7-8.7-4.3-1.7-53.2-1.4-54.8 0.2zm364.2 259.5c-18 1.1-18 1.1-19.9 13.7-3 22.4-1.9 78.7 1.6 82.2 2.2 2.2 15.3 3.3 41 3.3 35.8 0 37.7-0.3 40.7-6 7.9-14.8 9-78.5 1.3-88-3.2-4.1-34.6-6.6-64.7-5.2zm15.9-530.9c25.6 7.9 36.3 18 36.3 34.2 0 11.2-12.9 34.9-20.2 37.1-8.5 2.8-39.1 1.4-56.3-2.4-13.1-3-15-4.4-15.8-10.4-0.8-6.6 11.4-60.4 15-66.2 1.9-3 11.7-1.1 41 7.7zm-64.2 105.2c1.4 0 9 1.9 16.6 4.4 64.2 19.7 70.2 23.5 70.2 42.1 0 18.9-10.9 33.9-27.6 38.3-11.2 3-40.6 0-64.4-6.9-17.8-5.1-17.8-5.1-5.7-47.2 4.6-16.7 9.5-30.7 10.9-30.7zm-702.3-291.9c192.5 0.8 192.5 0.8 201.2 7.1 5.5 3.8 10.1 10.4 11.8 16.4 2.1 6.8 2.7 72.4 2.1 208.8-0.8 196-0.8 198.8-6.5 206.4-13.1 18.1-4.7 17.3-212.7 17.3-145 0-190.1-0.9-195.3-3.6-3.5-1.9-10.3-9.3-15-16.7-8.2-13.4-8.2-13.4-8.2-212.4 0-195.7 0-199 5.5-206.4 3-4.1 9.8-9.6 15-12.6 9-4.6 18.6-4.9 202.1-4.3zm0.5 103.3c-61.7 0-107.3 1.1-109.8 2.7-3.5 2.2-4.1 19.7-4.9 124.1-0.8 121.7-0.8 121.7 8.2 123.3 4.9 0.9 56 1.4 113.3 0.9 81.1-0.6 105.2-1.7 107.9-4.4 2.7-2.7 3.8-27.9 4.4-112.9 0.5-60.2 0.2-112.1-0.6-115.4-0.8-3.3-4.1-8.7-7.1-12.3-5.7-6-5.7-6-111.4-6zm35.8 87.2c4.1 4.1 5.7 56.9 2.2 70.5-3.6 12.6-5.8 14-27.9 16.4-22.1 2.2-40.1-1.1-47.8-8.7-6-6.3-6.5-8.5-6.5-37.7 0-35.6 2.4-41.6 19.1-45.7 19.4-4.4 54.1-1.6 60.9 5.2zm307.7-190.8c21.3-0.3 27.6 0.8 35 5.2 11.7 7.1 14.2 14.7 14.2 42.6 0 39.9-8.2 50.3-42.1 52.5-40.7 2.5-48-5.7-48-52.7 0-29 3.5-42.7 11.4-46 1.9-0.8 15.3-1.6 29.5-1.6zm2853 275.8c29.5 0 55.4 1.1 57.4 2.5 3 1.6 3.5 27.1 2.7 129.6-0.6 84.2 0 127.4 1.9 126.8 1.6-0.5 6.5-7.6 10.9-15.8 6-10.4 15-20.3 30.6-32.8 35.5-28.5 70.7-43 118.8-49.5 40.9-5.5 98.3 4.6 138.4 24.3 41 20.2 80.3 68.4 94.2 115.4 6.9 23.2 9.6 76.2 11.2 219.5 1.4 130.1 1.4 133.1-3.8 136.1-5.7 3-100.5 4.1-107.9 1.1-3.8-1.3-4.3-16.6-4.3-141.6 0-155.8-0.8-162.9-17.8-197.6-23.2-47.1-78.9-70.3-148.2-61.3-45.9 5.8-84.2 33.7-104.4 75.2-18 37.5-18.5 40.5-20.2 186.2-1.3 110.2-2.4 131.8-5.7 135-3.3 3.3-13.9 4.1-56.5 4.4-52.7 0-52.7 0-54.6-10.9-3.3-18.1-2.8-635.1 0.5-641.4 2.7-4.9 6.3-5.2 56.8-5.2zm-1887.4 17c1.3 1.9 2.4 110.2 2.4 240.6 0 130.6 0.9 237.2 2 237.2 1 0 4-3.8 6.5-8.7 2.5-4.6 15-21.1 28.1-36.1 12.9-15.3 41-49.5 62.3-76 21.3-26.8 55.1-67.8 75.1-91.6 20.2-23.8 50-59.8 66.3-80.1 50.8-62.6 107.9-131.2 133.6-160.7 24.5-27.9 24.5-27.9 82.7-27.9 48.9 0 58.7 0.5 59.8 4.1 1.1 2.5-7.4 14.5-22.7 32-13.6 15.6-36 42.9-49.9 60.9-26.2 33.7-121.8 148.2-138.5 165.7-9.3 9.6-9.3 9.6 6.3 35.6 8.5 14.2 31.1 49.7 50.3 79 68.2 104.7 82.1 126.5 112.5 174.9 47.7 76.3 48.6 77.7 48.6 84 0 6.2 0 6.2-60.9 6.2-59.8 0-61.2 0-66.7-6.2-9.8-11-39.8-55-69-102-71.3-113.7-98.4-156.1-103-162.1-5.2-6.6-5.2-6.6-21.6 14.7-43.1 56.9-167.6 207-202.3 243.6-10.4 11.2-10.4 11.2-37.7 12.6-45.3 2.2-72.4 1.4-74.8-2.7-4.1-6.9-5.7-104.7-5.7-368.3 0-202.8 0.8-266.3 3.2-268.7 4.7-4.7 109.8-4.7 113.1 0zm893.2 170.3c38.5 19.7 83.8 59 97.5 85.3 2.4 4.9 5.4 9 6.8 9 1.1 0 3-16.4 4.1-36.3 1.9-38.9 5.4-67 9.3-70.9 1.1-1 26.7-3 56.8-3.8 43.4-1.3 55.1-0.8 58.9 1.9 5.2 4.1 5.2 4.4-18.2 205.9-3.6 30.3-3.9 42.6-1.7 60.1 1.7 12.3 7.4 61.5 12.6 109.7 5.2 48.1 10.1 90.4 10.6 94.3 0.8 3.8 0.6 8.4-0.5 10.1-2.2 3.5-90.7 7.9-105.7 5.2-7.9-1.7-10.6-3.8-13.7-11.2-4-9.3-9.5-57.4-9.5-82.6 0-7.6-1.1-14.7-2.5-15.8-1.3-0.9-7.1 5.2-12.5 13.4-10.4 15.5-42.4 47.5-62 62-15.6 11.2-49.4 28.2-76.7 38.3-46.2 17.2-108.4 17.2-148.3 0-22.4-9.6-62.3-32-80.8-45.7-36.4-26.8-62.8-70.8-80.6-135-6.6-22.7-7.4-30.9-7.4-65.6 0.3-31.7 1.4-44.3 6.3-63.7 26-102.5 95.9-170.6 193.6-189.2 50.3-9.6 115 0.3 163.6 24.6zm-115.3 65.9c-28.4 4.4-38.2 7.6-57 20.5-24.9 16.7-37.2 29.8-49.2 53.6-19.4 38.8-25.1 71.3-19.4 111.5 4.7 33.6 9 46.2 24.6 71.4 20.8 33 41.2 48.6 84.7 63.9 21.3 7.7 27 8.5 43.7 7.4 24-1.9 70.7-16.9 94.2-30.9 35.2-20.5 72.9-64 95.8-111 8.7-18 8.7-18 3.8-36.3-5.4-20.8-26.5-56.9-46.1-79.3-25.1-29-73.7-60.2-104.1-66.4-16.1-3.3-59.2-6.1-71-4.4zm-200.9 137.8c-1.4 0-1.9 1.1-1.1 2.7 0.8 1.4 2.2 2.7 3 2.7 0.5 0 1.1-1.3 1.1-2.7 0-1.6-1.4-2.7-3-2.7zm1.9 30c-0.8 0-2.2 1.1-3 2.8-0.8 1.3-0.3 2.7 1.1 2.7 1.6 0 3-1.4 3-2.7 0-1.7-0.6-2.8-1.1-2.8zm951.1-255.6c47.8 8.2 75.6 16.7 106.7 33.4 29 15.3 48.9 30.3 63.4 48.4 15.3 18.8 30 51.1 30.6 66.7 0.2 11.2-0.6 12.5-6.6 14.5-12.3 3.5-93.6 2.7-101-1.1-3.8-1.9-10.7-9.6-15.6-17-14.7-23.2-22.6-31.1-40.1-41-26.5-14.8-71.8-23.5-120.4-23.5-35.3 0-77.9 9.3-94.3 20.8-34.9 24-30.3 57.4 10.4 75.7 15 6.8 23.2 8.5 52.2 10.7 39.3 2.7 58.1 4.6 79.4 7.9 8.2 1.4 36.6 5.2 62.8 8.2 54.7 6.3 89.9 14.8 117.2 28.7 25.7 12.8 36 22.4 47.8 44.8 13.4 26 19.1 50.9 16.9 78.2-4.9 73.3-51.1 116.2-153.2 142.7-29.2 7.4-31.9 7.7-99.7 7.7-73.1 0-78.3-0.8-135.1-17.5-17.5-5.2-55.7-22.7-76.2-35.3-39.6-23.8-66.9-62-70.5-98.9-1-13.2-0.8-21.6 1.1-23.8 2.2-2.8 15.6-3.6 53-3.6 56.5 0 47.8-4.1 73.2 34.2 12.8 19.4 37.1 35 73.2 46.5 26.5 8.4 33.8 9.8 69.9 11.2 55.4 2.4 85.2-1.4 111.4-14 26.5-12.8 34.7-24 36-50.8 1.1-17.8 0.9-19.2-6.8-26.8-9.8-9.9-36-18.3-63.9-20.8-11.2-1.1-34.4-4.1-51.9-7.1-17.4-2.7-42-5.2-54.6-5.2-41.5-0.3-74.8-4.9-108.4-15.3-62.3-19.4-90.6-39.9-110.6-79.8-11.5-23.3-11.5-23.3-11.5-55.3 0-30.6 0.3-32.2 9.3-50 24.1-47.3 84.7-83.6 153.2-92.1 14.2-1.6 30.9-4.1 36.9-5.5 23.5-4.6 74.5-3 115.8 4.1zm966.3 6.3c14.8 0.6 17.5 1.4 19.7 6.6 1.4 3.5 22.1 50 46.2 103.3 40.1 90 114.9 258.6 120.4 272.6 3.8 9.3 6.8 7.6 10.9-5.2 1.9-6.6 9.3-23.5 16.4-37.7 7.1-14.3 27.8-58.6 45.9-98.5 92-202.3 105.6-231 114.1-238.1 3.5-2.7 16.1-3.5 58.2-2.7 29.4 0.3 54.6 1.6 55.7 2.7 1.1 1.1-8.2 23.5-20.8 49.8-12.8 26.2-41 84.4-62.5 129.6-21.9 45.1-45.6 94.3-52.7 109.3-72.7 150.9-114.2 235.7-124 252.6-13.9 23.5-41.8 53-63.1 66.4-20.7 13.2-47.2 23.3-71.2 27.1-30.6 4.7-82.8 1.4-113.1-7.4-30.3-9-60.1-23.5-64.4-31.7-2.2-3.8-3.9-21.9-4.7-44-1.1-36.9-1.1-37.5 4.7-37.5 3.2 0 14.2 4.1 24.3 9.3 39.8 20 49.4 22.2 97.5 22.2 42.8 0 43.9-0.3 60-7.9 18.3-9.1 38-27.7 48.9-46.5 12-20.5 10.9-21.3-20.7-24.9-15.9-1.6-15.9-1.6-27.1-25.4-6.3-13.1-17.2-36.7-24.3-52.5-7.1-15.9-29.5-63.2-49.7-105.3-92.3-191.3-133.2-278.8-133.2-284 0-0.8 6.5-1.6 14.4-2.2 16.7-0.8 69.4-1.1 94.2 0zm-36.5 571.9c-0.6 0-1.1 1.1-1.1 2.8 0 1.3 1.3 2.7 3 2.7 1.3 0 1.9-1.4 1.1-2.7-0.9-1.7-2.2-2.8-3-2.8zm-3941.2-478.4c30 0 32.8 0.6 39.9 6.6 7.3 6.3 7.6 7.9 8.4 33.6 1.1 32.3-1.6 40.7-14.4 45.9-11.2 4.9-59 5.5-67.5 1.1-7.4-4.1-15.8-23.2-15.8-37.2 0-18.3 5.4-39.9 11.5-45.3 4.6-3.9 10.9-4.7 37.9-4.7zm1.9 31.4c-0.8-0.8-2.4 0.6-3.3 3.3-1.6 3.9-1.3 4.1 1.4 1.7 1.9-1.9 2.7-4.1 1.9-5zm174.5-30.6c35 0.8 35 0.8 35 44.3 0 42.4 0 42.4-31.7 44.3-44 2.5-55.4-7.4-53.5-47 1.1-26.5 5.7-37.5 16.9-40.2 4.6-0.8 19.4-1.6 33.3-1.4zm0 172.5c175.3 1.1 189.5 1.7 197.2 6 4.6 2.8 9.5 8.5 11.2 12.9 1.6 5.5 2.7 77.1 2.7 204.8 0 212.6 0.3 206.6-15 220.8-7.4 6.9-7.4 6.9-199.6 7.7-215.2 0.8-202.4 1.9-216.3-19.1-7.4-11.5-7.4-11.5-8.2-204.2-0.5-132.9 0-196.3 2.2-203.2 3-10.9 14.5-20.7 28.4-24.3 4.6-1.4 93.4-1.9 197.4-1.4zm-5.7 102.8c-92.9 0-105.4 0.6-109.5 4.4-3.9 4.1-4.4 16.7-3.6 118.9 0.6 89.4 1.7 115.1 4.4 117.8 2.7 2.8 26.2 3.6 109.8 3.6 121.2 0 114.1 1.4 117.7-23.8 1-7.9 2.1-57.4 2.1-109.6 0.3-95.4 0.3-95.4-7.6-103.3-7.9-8-7.9-8-113.3-8zm983.8 267.7c27.3 2.7 28.1 4.1 27.1 43.4-0.9 26.3-1.7 31.7-5.8 34.7-6.3 4.7-46.1 8-64.4 5.5-21.3-3-24.9-9-24.9-42.6 0-33.4 2.2-39.9 14.2-41.6 15-1.9 32.5-1.6 53.8 0.6zm-596.1 3.2c2.8 4.7 4.9 52.3 2.8 63.5-2.5 13.1-13.7 16.9-48.9 16.9-36.6 0-37.4-1.1-37.4-44.8q0-32 3.2-35.3c4.4-4.4 77.6-4.6 80.3-0.3z"/>
	</g>
</svg>