<?xml version="1.0" standalone="no"?>
<!DOCTYPE svg PUBLIC "-//W3C//DTD SVG 20010904//EN"
 "http://www.w3.org/TR/2001/REC-SVG-20010904/DTD/svg10.dtd">
<svg version="1.0" xmlns="http://www.w3.org/2000/svg"
 width="2000.000000pt" height="809.000000pt" viewBox="0 0 2000.000000 809.000000"
 preserveAspectRatio="xMidYMid meet">
<metadata>
Created by potrace 1.16, written by Peter Selinger 2001-2019
</metadata>
<g transform="translate(0.000000,809.000000) scale(0.100000,-0.100000)"
fill="#000000" stroke="none">
<path d="M4955 6554 c-160 -18 -282 -57 -480 -157 -137 -69 -143 -73 -255
-188 -63 -64 -126 -136 -140 -159 -14 -23 -40 -63 -57 -88 -39 -56 -108 -195
-134 -271 -10 -29 -24 -92 -31 -140 -6 -47 -15 -90 -18 -94 -4 -5 -24 3 -45
17 -34 24 -47 26 -139 26 -161 0 -146 46 -147 -448 -1 -229 -4 -461 -8 -515
-6 -98 -6 -99 -43 -133 -38 -34 -38 -34 -308 -34 -264 0 -270 0 -281 -21 -14
-28 -24 -163 -15 -221 12 -81 15 -82 184 -88 147 -6 151 -7 223 -42 110 -55
152 -96 202 -196 42 -87 42 -87 47 -584 3 -273 7 -498 10 -501 36 -32 205 -39
265 -10 35 17 35 17 37 327 3 311 3 311 174 314 171 2 171 2 177 -85 3 -49 7
-321 7 -606 0 -285 5 -528 10 -541 5 -13 16 -26 25 -30 24 -9 408 -7 423 2 9
7 12 58 10 223 -3 214 -3 214 -93 220 -49 3 -103 12 -120 20 -30 14 -30 14
-37 184 -3 94 -6 351 -6 573 0 367 1 404 16 410 9 3 85 6 167 7 150 0 150 0
155 -335 3 -184 7 -336 8 -337 1 -1 15 -9 32 -18 22 -11 63 -15 170 -15 140 0
140 0 140 -442 0 -337 3 -449 13 -468 10 -20 23 -26 67 -33 72 -9 224 1 247
18 16 12 18 38 23 289 3 163 9 279 15 285 6 6 129 12 300 14 308 5 340 10 351
53 8 33 1 231 -9 241 -5 4 -85 13 -178 18 -170 10 -170 10 -169 364 0 194 2
357 5 361 2 4 73 8 156 9 84 1 160 6 170 12 22 11 33 94 27 191 -9 121 23 113
-461 115 -227 1 -419 3 -427 3 -10 0 -11 3 -3 11 6 6 47 17 92 25 268 47 518
178 659 347 24 29 62 72 86 97 72 76 125 163 183 297 65 153 78 201 99 357 36
274 -39 564 -207 808 -94 135 -208 268 -268 312 -60 44 -317 172 -395 198
-125 40 -372 66 -501 52z m141 -445 c24 -6 47 -15 49 -20 3 -4 -4 -51 -17
-104 -24 -106 -21 -115 35 -115 32 0 48 30 69 129 13 63 13 63 76 57 85 -7 95
-17 87 -80 -4 -28 -13 -66 -21 -85 -27 -64 -21 -76 48 -97 47 -14 73 -30 113
-69 89 -88 111 -167 75 -270 -17 -48 -32 -70 -83 -116 -62 -57 -62 -57 -10
-112 59 -62 68 -86 68 -177 0 -73 -32 -149 -91 -218 -47 -55 -91 -66 -264 -67
-144 0 -144 0 -159 -105 -7 -58 -15 -106 -16 -108 -6 -7 -141 22 -152 32 -9 8
-6 31 13 95 37 128 32 151 -31 151 -34 0 -43 -18 -68 -129 -13 -56 -27 -102
-33 -102 -28 1 -121 26 -131 35 -10 9 -7 32 12 106 14 52 25 103 25 113 0 20
-14 26 -120 57 -75 22 -150 50 -150 57 0 1 9 20 20 40 11 21 20 48 20 61 0 23
2 23 43 16 23 -5 67 -9 97 -9 63 0 47 -39 138 340 65 268 76 335 59 353 -7 7
-44 23 -83 35 -76 25 -71 17 -56 112 9 58 9 58 117 26 38 -12 98 -22 133 -23
64 -3 64 -3 83 86 27 131 21 126 105 105z m-1080 -1436 c7 -2 14 -17 17 -32 7
-31 164 -219 251 -298 152 -139 411 -241 670 -265 31 -3 47 -23 24 -29 -7 -2
-273 -3 -590 -1 l-578 3 0 308 c0 169 2 310 5 313 6 6 185 7 201 1z m1370
-969 c28 -35 24 -268 -5 -322 -11 -21 -18 -22 -149 -22 -94 0 -142 4 -150 12
-13 13 -17 219 -6 301 7 46 7 46 73 50 110 5 225 -4 237 -19z"/>
<path d="M5057 5693 c-13 -21 -58 -218 -55 -242 3 -22 10 -27 58 -38 63 -14
175 -19 206 -9 27 8 74 95 74 136 0 59 -39 96 -133 125 -107 32 -143 39 -150
28z"/>
<path d="M4932 5168 c-44 -154 -44 -154 21 -173 87 -25 195 -36 236 -25 61 16
101 71 101 140 0 68 -22 82 -257 154 -28 9 -56 16 -61 16 -5 0 -23 -51 -40
-112z"/>
<path d="M1660 6332 c-19 -11 -44 -31 -55 -46 -20 -27 -20 -39 -20 -755 0
-728 0 -728 30 -777 17 -27 42 -54 55 -61 19 -10 184 -13 715 -13 762 0 731
-3 779 63 21 28 21 38 24 755 2 499 0 739 -8 764 -6 22 -23 46 -43 60 -32 23
-32 23 -737 26 -672 2 -707 1 -740 -16z m1150 -384 c11 -13 23 -33 26 -45 3
-12 4 -202 2 -422 -2 -311 -6 -403 -16 -413 -10 -10 -98 -14 -395 -16 -210 -2
-397 0 -415 3 -33 6 -33 6 -30 451 3 382 5 446 18 454 9 6 176 10 402 10 387
0 387 0 408 -22z"/>
<path d="M2310 5670 c-61 -15 -70 -37 -70 -167 0 -107 2 -115 24 -138 28 -28
94 -40 175 -32 81 9 89 14 102 60 13 50 7 243 -8 258 -25 25 -152 35 -223 19z"/>
<path d="M3552 6343 c-29 -12 -42 -62 -42 -168 0 -172 27 -202 176 -193 124 8
154 46 154 192 0 102 -9 130 -52 156 -27 16 -50 20 -128 19 -52 0 -101 -3
-108 -6z"/>
<path d="M13900 5321 c-12 -23 -14 -2280 -2 -2346 7 -40 7 -40 200 -40 156 1
195 4 207 16 12 12 16 91 21 494 6 533 8 544 74 681 74 152 214 254 382 275
254 33 458 -52 543 -224 62 -127 65 -153 65 -723 0 -457 2 -513 16 -518 27
-11 374 -7 395 4 19 11 19 22 14 498 -6 524 -16 718 -41 803 -51 172 -195 348
-345 422 -147 72 -357 109 -507 89 -176 -24 -305 -77 -435 -181 -57 -46 -90
-82 -112 -120 -16 -30 -34 -56 -40 -58 -7 -2 -9 156 -7 464 3 375 1 468 -10
474 -7 5 -102 9 -210 9 -185 0 -198 -1 -208 -19z"/>
<path d="M6782 5278 c-9 -9 -12 -241 -12 -983 0 -964 6 -1322 21 -1347 9 -15
108 -18 274 -10 100 5 100 5 138 46 127 134 583 683 741 891 60 78 60 78 79
54 17 -22 116 -177 377 -593 107 -172 217 -333 253 -373 20 -23 25 -23 244
-23 223 0 223 0 223 23 0 23 -3 28 -178 307 -111 177 -162 257 -412 640 -70
107 -153 237 -184 289 -57 95 -57 95 -23 130 61 64 411 483 507 606 51 66 133
166 183 223 56 64 87 108 83 117 -4 13 -40 15 -219 15 -213 0 -213 0 -303
-102 -94 -108 -303 -359 -489 -588 -60 -74 -169 -206 -243 -293 -73 -87 -197
-237 -275 -335 -78 -97 -181 -222 -228 -278 -48 -55 -94 -115 -103 -132 -9
-18 -20 -32 -24 -32 -4 0 -7 390 -7 868 0 477 -4 873 -9 880 -12 17 -397 17
-414 0z"/>
<path d="M9868 4745 c-358 -68 -614 -317 -709 -692 -18 -71 -22 -117 -23 -233
0 -127 3 -157 27 -240 65 -235 162 -396 295 -494 68 -50 214 -132 296 -167
146 -63 374 -63 543 0 100 37 224 99 281 140 72 53 189 170 227 227 20 30 41
52 46 49 5 -4 9 -30 9 -58 0 -92 20 -268 35 -302 11 -27 21 -35 50 -41 55 -10
379 6 387 19 4 6 5 23 2 37 -2 14 -20 169 -39 345 -19 176 -40 356 -46 401 -8
64 -7 109 6 220 86 737 86 738 67 753 -14 10 -57 12 -216 7 -110 -3 -204 -10
-208 -14 -14 -14 -27 -117 -34 -259 -4 -73 -11 -133 -15 -133 -5 0 -16 15 -25
33 -50 96 -216 240 -357 312 -178 89 -415 125 -599 90z m437 -347 c111 -23
289 -137 381 -243 72 -82 149 -214 169 -290 18 -67 18 -67 -14 -133 -84 -172
-222 -331 -351 -406 -86 -51 -257 -106 -345 -113 -61 -4 -82 -1 -160 27 -159
56 -234 113 -310 234 -57 92 -73 138 -90 261 -21 147 0 266 71 408 44 87 89
135 180 196 69 47 105 59 209 75 43 6 201 -4 260 -16z m-985 -498 c0 -5 -2
-10 -4 -10 -3 0 -8 5 -11 10 -3 6 -1 10 4 10 6 0 11 -4 11 -10z m0 -110 c0 -5
-5 -10 -11 -10 -5 0 -7 5 -4 10 3 6 8 10 11 10 2 0 4 -4 4 -10z"/>
<path d="M12375 4750 c-22 -5 -83 -14 -135 -20 -251 -31 -473 -164 -561 -337
-33 -65 -34 -71 -34 -183 0 -117 0 -117 42 -202 73 -146 177 -221 405 -292
123 -38 245 -55 397 -56 46 0 136 -9 200 -19 64 -11 149 -22 190 -26 102 -9
198 -40 234 -76 28 -28 29 -33 25 -98 -5 -98 -35 -139 -132 -186 -96 -46 -205
-60 -408 -51 -132 5 -159 10 -256 41 -132 42 -221 99 -268 170 -93 140 -61
125 -268 125 -137 0 -186 -3 -194 -13 -7 -8 -8 -39 -4 -87 13 -135 113 -275
258 -362 75 -46 215 -110 279 -129 208 -61 227 -64 495 -64 248 0 258 1 365
28 374 97 543 254 561 522 8 100 -13 191 -62 286 -43 82 -81 117 -175 164
-100 51 -229 82 -429 105 -96 11 -200 25 -230 30 -78 12 -147 19 -291 29 -106
8 -136 14 -191 39 -149 67 -166 189 -38 277 60 42 216 76 345 76 178 0 344
-32 441 -86 64 -36 93 -65 147 -150 18 -27 43 -55 57 -62 27 -14 325 -17 370
-4 22 7 25 12 24 53 -2 57 -56 175 -112 244 -53 66 -126 121 -232 177 -114 61
-216 92 -391 122 -151 26 -338 32 -424 15z"/>
<path d="M15993 4712 c-29 -2 -53 -5 -53 -8 0 -19 150 -339 488 -1039 74 -154
156 -327 182 -385 26 -58 66 -144 89 -192 41 -87 41 -87 99 -93 116 -13 120
-16 76 -91 -40 -69 -112 -137 -179 -170 -59 -28 -63 -29 -220 -29 -176 0 -211
8 -357 81 -37 19 -77 34 -89 34 -21 0 -21 -2 -17 -137 3 -81 9 -147 17 -161
16 -30 125 -83 236 -116 111 -32 302 -44 414 -27 88 14 185 51 261 99 78 49
180 157 231 243 36 62 188 372 454 924 26 55 113 235 193 400 79 165 182 378
229 474 46 96 80 178 76 182 -4 4 -96 9 -204 10 -154 3 -200 0 -213 -10 -31
-26 -81 -131 -418 -871 -66 -146 -142 -308 -168 -360 -26 -52 -53 -114 -60
-138 -15 -47 -26 -53 -40 -19 -20 51 -294 668 -441 997 -88 195 -164 365 -169
378 -8 19 -18 22 -72 24 -91 4 -284 3 -345 0z m222 -2102 c3 -5 1 -10 -4 -10
-6 0 -11 5 -11 10 0 6 2 10 4 10 3 0 8 -4 11 -10z"/>
<path d="M1632 4353 c-22 -20 -42 -99 -42 -166 0 -51 31 -121 58 -136 31 -16
206 -14 247 4 47 19 57 50 53 168 -3 94 -4 100 -31 123 -26 22 -36 24 -146 24
-99 0 -122 -3 -139 -17z m139 -116 c-10 -9 -11 -8 -5 6 3 10 9 15 12 12 3 -3
0 -11 -7 -18z"/>
<path d="M2295 4362 c-41 -10 -58 -50 -62 -147 -7 -145 35 -181 196 -172 116
7 116 7 116 162 0 159 0 159 -128 162 -51 1 -105 -2 -122 -5z"/>
<path d="M1694 3731 c-51 -13 -93 -49 -104 -89 -8 -25 -10 -257 -8 -743 3
-705 3 -705 30 -747 51 -77 4 -73 792 -70 704 3 704 3 731 28 56 52 55 30 55
808 0 467 -4 729 -10 749 -6 16 -24 37 -41 47 -28 16 -80 18 -722 22 -381 2
-706 0 -723 -5z m1117 -400 c29 -29 29 -29 28 -378 0 -191 -4 -372 -8 -401
-13 -92 13 -87 -431 -87 -306 0 -392 3 -402 13 -10 10 -14 104 -16 431 -3 374
-1 420 13 435 15 14 61 16 401 16 386 0 386 0 415 -29z"/>
<path d="M5802 2383 c-44 -6 -52 -30 -52 -152 0 -123 13 -145 91 -156 67 -9
213 3 236 20 15 11 18 31 21 127 4 144 1 149 -99 159 -78 8 -142 9 -197 2z"/>
<path d="M3522 2368 c-8 -8 -12 -51 -12 -129 0 -160 3 -164 137 -164 129 0
170 14 179 62 8 41 0 215 -10 232 -10 16 -278 15 -294 -1z"/>
</g>
</svg>
